{"title":"Sleeping.Beauty.2014.BRRip.XviD-KX","uid":10337930,"size":1161629864,"categoryP":"video","categoryS":"movies","magnet":"?xt=urn:btih:3428bd9e14956d007c9d7d217ae1121f25b1261e&amp;dn=Sleeping.Beauty.2014.BRRip.XviD-KX&amp;tr=udp%3A%2F%2Ftracker.openbittorrent.com%3A80&amp;tr=udp%3A%2F%2Fopen.demonii.com%3A1337&amp;tr=udp%3A%2F%2Ftracker.coppersurfer.tk%3A6969&amp;tr=udp%3A%2F%2Fexodus.desync.com%3A6969","seeders":6,"leechers":0,"uploader":"xxxlavalxxx","files":-1,"time":1402507345,"description":"[IMG]http://i.imgur.com/xHnM8YR.jpg[/IMG]\n\n\n &lt;a href=&quot;\nhttp://www.imdb.com/title/tt3343136/&quot; rel=&quot;nofollow&quot; target=&quot;_NEW&quot;&gt;\nhttp://www.imdb.com/title/tt3343136/&lt;/a&gt;\n\n\n\nWhen a young Prince and his trusted aid learn of a beautiful Princess's cursed eternal slumber, they embark on a journey to rescue her. They must battle an evil queen and legions of undead monsters before she will be free.\n\nDirector: Casper Van Dien\nWriters: R. Dessertine (screenplay), Jacob Grimm (original story)\nStars: Michael York, Finn Jones, Grace Van Dien\nGenres: Adventure | Fantasy\nCountry: USA\nLanguage: English\n\n\n\nFormat: AVI\nFormat/Info: Audio Video Interleave\nFormat profile: OpenDML\nFile size: 1.08 GiB\nDuration: 1h 28mn\nOverall bit rate: 1 744 Kbps\nWriting application: Lavf53.21.1 Video\nID: 0\nFormat: xvid\nCodec ID: xvid\nDuration: 1h 28mn\nBit rate: 1 600 Kbps\nWidth: 640 pixels\nHeight: 360 pixels\nDisplay aspect ratio: 16:9\nFrame rate: 23.976 fps\nBits/(Pixel*Frame): 0.290\nStream size: 1 016 MiB (92%)\nTitle: English Audio\nID: 1\nFormat: MPEG Audio\nFormat version: Version 1\nFormat profile: Layer 3\nMode: Joint stereo\nMode extension: MS Stereo\nCodec ID: 55\nCodec ID/Hint: MP3\nDuration: 1h 28mn\nBit rate mode: Constant\nBit rate: 128 Kbps\nChannel(s): 2 channels\nSampling rate: 48.0 KHz\nCompression mode: Lossy\nStream size: 81.3 MiB (7%)\nAlignment: Aligned on interleaves\nInterleave, duration: 24 ms (0.58 video frame)\nTitle: English\nWriting library: LAME3.99.3\n\n\n\nscreens\n &lt;a href=&quot;\nhttp://i.imgur.com/8lYoBw9.png&quot; rel=&quot;nofollow&quot; target=&quot;_NEW&quot;&gt;\nhttp://i.imgur.com/8lYoBw9.png&lt;/a&gt; &lt;a href=&quot;\nhttp://i.imgur.com/JuEK8ME.png&quot; rel=&quot;nofollow&quot; target=&quot;_NEW&quot;&gt;\nhttp://i.imgur.com/JuEK8ME.png&lt;/a&gt; &lt;a href=&quot;\nhttp://i.imgur.com/BihUN97.png&quot; rel=&quot;nofollow&quot; target=&quot;_NEW&quot;&gt;\nhttp://i.imgur.com/BihUN97.png&lt;/a&gt; &lt;a href=&quot;\nhttp://i.imgur.com/PKDc5y2.png&quot; rel=&quot;nofollow&quot; target=&quot;_NEW&quot;&gt;\nhttp://i.imgur.com/PKDc5y2.png&lt;/a&gt;","torrent":{"xt":"urn:btih:3428bd9e14956d007c9d7d217ae1121f25b1261e","amp;dn":"Sleeping.Beauty.2014.BRRip.XviD-KX","amp;tr":["udp%3A%2F%2Ftracker.openbittorrent.com%3A80","udp%3A%2F%2Fopen.demonii.com%3A1337","udp%3A%2F%2Ftracker.coppersurfer.tk%3A6969","udp%3A%2F%2Fexodus.desync.com%3A6969"],"infoHash":"3428bd9e14956d007c9d7d217ae1121f25b1261e","infoHashBuffer":{"type":"Buffer","data":[52,40,189,158,20,149,109,0,124,157,125,33,122,225,18,31,37,177,38,30]},"announce":[],"urlList":[]}}